<?xml version="1.0" encoding="utf-8"?>
<!-- Generator: Adobe Illustrator 27.5.0, SVG Export Plug-In . SVG Version: 6.00 Build 0)  -->
<svg version="1.1" id="Layer_1" xmlns="http://www.w3.org/2000/svg" xmlns:xlink="http://www.w3.org/1999/xlink" x="0px" y="0px"
	 viewBox="0 0 734.1 576.52" style="enable-background:new 0 0 734.1 576.52;" xml:space="preserve">
<path fill="#faebd7" d="M233.08,575.16L233.08,575.16c-15.83-4.91-24.68-21.71-19.77-37.54L373.24,21.84c4.91-15.83,21.71-24.68,37.54-19.77l0,0
	c15.83,4.91,24.68,21.71,19.77,37.54L270.62,555.39C265.71,571.21,248.9,580.06,233.08,575.16z"/>
<path fill="#faebd7" d="M250.64,574.17L250.64,574.17c-15.28,6.41-32.86-0.77-39.27-16.05L2.35,60.22C-4.07,44.94,3.12,27.36,18.4,20.94l0,0
	c15.28-6.41,32.86,0.77,39.27,16.05L266.69,534.9C273.1,550.18,265.91,567.76,250.64,574.17z"/>
<path fill="#faebd7" d="M611.46,285.78L611.46,285.78c-4.91,15.83-21.71,24.68-37.54,19.77l-229.23-71.08c-15.83-4.91-24.68-21.71-19.77-37.54v0
	c4.91-15.83,21.71-24.68,37.54-19.77l229.23,71.08C607.52,253.15,616.37,269.95,611.46,285.78z"/>
<path fill="#faebd7" d="M732.74,132.37L732.74,132.37c-4.91,15.83-21.71,24.68-37.54,19.77L393.74,58.66c-15.83-4.91-24.68-21.71-19.77-37.54v0
	c4.91-15.83,21.71-24.68,37.54-19.77l301.46,93.48C728.8,99.74,737.65,116.55,732.74,132.37z"/>
</svg>
